<?xml version="1.0" encoding="utf-8"?>
<!-- Generator: Adobe Illustrator 19.2.1, SVG Export Plug-In . SVG Version: 6.00 Build 0)  -->
<svg version="1.1" id="Layer_2" xmlns="http://www.w3.org/2000/svg" xmlns:xlink="http://www.w3.org/1999/xlink" x="0px" y="0px"
	 viewBox="0 0 80.3 80.3" style="enable-background:new 0 0 80.3 80.3;" xml:space="preserve">
<style type="text/css">
	.st0{fill:#EB6A5C;}
	.st1{fill:#552F2F;}
	.st2{fill:#2384AB;}
	.st3{fill:#FFFFFF;}
	.st4{fill:#0C2C48;}
	.st5{fill:#F6A09C;}
	.st6{fill:#61C3AF;}
	.st7{fill:#2F4555;}
	.st8{fill:#55AB99;}
	.st9{fill:#ED6B5A;}
	.st10{fill:#2484AD;}
	.st11{fill:#FCA886;}
	.st12{fill:#F1CC4B;}
	.st13{fill:#6EB9E0;}
	.st14{fill:#50646F;}
	.st15{fill:#EDC84A;}
	.st16{fill:#E7543A;}
	.st17{fill:#F38D80;}
	.st18{fill:#F2F2F2;}
	.st19{fill:#81CAFF;}
	.st20{clip-path:url(#SVGID_4_);fill:#55AB99;}
	.st21{fill:#BABFC5;}
	.st22{fill:#BBC2C7;}
</style>
<g>
	
		<ellipse transform="matrix(6.904921e-03 -1 1 6.904921e-03 -0.2776 80.0564)" class="st4" cx="40.2" cy="40.2" rx="40.2" ry="40.2"/>
	<g>
		<path class="st13" d="M51.9,20.5c-6,1.8-12,5.6-17.1,10.7l0,0c0,0-0.1,0.1-0.1,0.1c0,0-0.1,0.1-0.1,0.1l0,0
			c-5,5.2-8.5,11.4-10.1,17.5l5,1.2c1.3-5.2,4.5-10.6,8.9-15.2c4.4-4.6,9.7-7.9,14.9-9.5L51.9,20.5z"/>
		<g>
			<path class="st13" d="M34.3,44.8c1.7,0.6,2.6,2.6,2,4.3l-2.8,7.7c-0.6,1.7-2.6,2.6-4.3,2l-4.4-1.6c-1.7-0.6-2.6-2.6-2-4.3
				l2.8-7.7c0.6-1.7,2.6-2.6,4.3-2L34.3,44.8z"/>
			<g>
				<path class="st13" d="M48.1,30.4c0.7,1.7,2.7,2.5,4.4,1.8l7.6-3.1c1.7-0.7,2.5-2.7,1.8-4.4l-1.8-4.3c-0.7-1.7-2.7-2.5-4.4-1.8
					l-7.6,3.1c-1.7,0.7-2.5,2.7-1.8,4.4L48.1,30.4z"/>
			</g>
		</g>
	</g>
</g>
</svg>
